<?xml version="1.0" encoding="UTF-8"?>
<svg width="512px" height="512px" viewBox="0 0 512 512" version="1.1" xmlns="http://www.w3.org/2000/svg" xmlns:xlink="http://www.w3.org/1999/xlink">
    <title>Jwc.js Dark Just Logo</title>
    <g id="Jwc.js-Dark-Just-Logo" stroke="none" stroke-width="1" fill="none" fill-rule="evenodd">
        <path d="M359.60676,237.916271 L343.865021,237.916271 C342.43605,247.639933 318.897709,294.019688 273.249999,377.055537 L273.250533,377.05583 C268.193939,386.250531 256.640982,389.605129 247.446281,384.548535 C244.175306,382.749673 241.506702,380.027113 239.773666,376.720791 C195.235121,291.757163 172.427967,245.489439 171.354776,237.916271 L152.785965,237.916271 C159.374898,254.823905 162.369867,263.881565 168.359806,283.204575 C218.06952,421.547799 244.322029,497.764258 247.117333,511.853953 L266.884132,511.853953 C270.478096,491.323255 353.190112,251.042677 359.60676,237.916271 Z" id="路径" fill-opacity="0.553743376" fill="#FFFFFF" fill-rule="nonzero"></path>
        <path d="M359.606766,-0.146046777 L341.037955,-0.146046777 C339.606156,9.59799905 316.73459,51.993703 272.423257,127.041065 L272.423352,127.041121 C267.086775,136.076198 255.436248,139.074424 246.401172,133.737847 C243.680661,132.130975 241.403827,129.871013 239.776765,127.162528 C193.355721,49.8946912 169.605251,7.45897091 168.527709,-0.146046777 C162.075725,-0.146046777 156.828477,-0.146046777 152.785965,-0.146046777 C154.69226,5.80102708 161.825787,25.8211639 167.815726,45.1441738 C217.152252,159.570488 243.218167,223.828492 246.013472,237.918187 L265.780271,237.918187 C269.374235,217.387489 353.190118,12.9822758 359.606766,-0.146046777 Z" id="路径" fill="#FFFFFF" fill-rule="nonzero" transform="translate(256.196365, 118.886070) rotate(180.000000) translate(-256.196365, -118.886070) "></path>
    </g>
</svg>