<?xml version="1.0" encoding="UTF-8"?>
<svg width="512px" height="512px" viewBox="0 0 512 512" version="1.1" xmlns="http://www.w3.org/2000/svg" xmlns:xlink="http://www.w3.org/1999/xlink">
    <title>Jwc.js Light Just Logo</title>
    <g id="Jwc.js-Light-Just-Logo" stroke="none" stroke-width="1" fill="none" fill-rule="evenodd">
        <path d="M359.490548,238.062318 L343.74881,238.062318 C342.319838,247.78598 318.781497,294.165735 273.133787,377.201583 L273.134321,377.201877 C268.077727,386.396577 256.52477,389.751175 247.33007,384.694581 C244.059094,382.89572 241.39049,380.17316 239.657455,376.866837 C195.118909,291.90321 172.311756,245.635486 171.238564,238.062318 L152.669753,238.062318 C159.258686,254.969951 162.253656,264.027612 168.243595,283.350622 C217.953308,421.693846 244.205817,497.910305 247.001122,512 L266.767921,512 C270.361884,491.469302 353.0739,251.188724 359.490548,238.062318 Z" id="路径" fill="#A8A8A8" fill-rule="nonzero"></path>
        <path d="M359.490554,1.98951966e-13 L340.921743,1.98951966e-13 C339.489944,9.74404583 316.618378,52.1397498 272.307045,127.187112 L272.30714,127.187168 C266.970563,136.222245 255.320037,139.220471 246.28496,133.883894 C243.564449,132.277021 241.287615,130.01706 239.660553,127.308574 C193.239509,50.040738 169.489039,7.60501768 168.411497,1.98951966e-13 C161.959514,1.98951966e-13 156.712265,1.98951966e-13 152.669753,1.98951966e-13 C154.576048,5.94707386 161.709575,25.9672107 167.699514,45.2902206 C217.03604,159.716535 243.101955,223.974539 245.89726,238.064234 L265.664059,238.064234 C269.258023,217.533536 353.073906,13.1283226 359.490554,1.98951966e-13 Z" id="路径" fill="#000000" fill-rule="nonzero" transform="translate(256.080154, 119.032117) rotate(180.000000) translate(-256.080154, -119.032117) "></path>
    </g>
</svg>